<svg width="748" height="572" viewBox="0 0 748 572" fill="none" xmlns="http://www.w3.org/2000/svg">
<g clip-path="url(#clip0_11:363)">
<path opacity="0.1" d="M248.679 571.678C285.106 571.678 314.636 566.558 314.636 560.242C314.636 553.926 285.106 548.805 248.679 548.805C212.252 548.805 182.722 553.926 182.722 560.242C182.722 566.558 212.252 571.678 248.679 571.678Z" fill="#DCEEEF"/>
<path opacity="0.1" d="M607.212 572C652.667 572 689.516 566.88 689.516 560.564C689.516 554.247 652.667 549.127 607.212 549.127C561.756 549.127 524.908 554.247 524.908 560.564C524.908 566.88 561.756 572 607.212 572Z" fill="#DCEEEF"/>
<path opacity="0.1" d="M9.3684 247.145H78.0668V348.232H14.3978C14.2285 349.27 14.0661 350.315 13.8901 351.36H78.0668V432.884C77.9518 432.848 77.8502 432.804 77.7419 432.76C75.9278 431.985 74.1273 431.167 72.3267 430.29L71.176 429.727C69.3709 428.806 67.5659 427.832 65.7608 426.804C65.1313 426.446 64.5018 426.073 63.879 425.693C53.8581 419.633 44.7546 411.954 36.8843 402.923C36.6542 402.681 36.4376 402.426 36.2074 402.192C35.1108 400.906 34.0346 399.605 32.9922 398.275L31.8414 396.813C30.6095 395.184 29.4181 393.51 28.2606 391.815C28.0914 391.566 27.929 391.318 27.753 391.084C23.0454 384.038 19.1367 376.408 16.1103 368.357C16.0155 368.116 15.9343 367.853 15.8463 367.627C14.9167 365.045 14.0931 362.438 13.3756 359.807C13.0643 358.704 12.7664 357.615 12.5092 356.468C12.4144 356.132 12.3332 355.803 12.2588 355.474C8.41397 339.273 7.96045 322.443 7.96045 305.731C7.96045 303.78 7.96045 301.821 7.96045 299.885C7.96045 293.125 8.03491 286.322 8.14321 279.525C8.14321 277.764 8.2109 276.01 8.24475 274.242C8.33951 269.755 8.47489 265.268 8.65089 260.781C8.6915 259.532 8.74565 258.289 8.80657 257.047C8.80657 256.331 8.84042 255.615 8.90811 254.899C9.07056 252.297 9.20594 249.717 9.3684 247.145Z" fill="#DCEEEF"/>
<path opacity="0.1" d="M78.0667 134.593H40.3838C46.5094 124.242 53.2023 114.295 60.4268 104.806C66.0247 97.3819 71.934 90.1473 78.0667 83.1758V134.593Z" fill="#DCEEEF"/>
<path opacity="0.1" d="M78.0668 137.72V244.017H9.58496C9.58496 243.711 9.63234 243.396 9.65265 243.089C9.71357 242.249 9.77449 241.409 9.84218 240.576C9.91664 239.596 9.99787 238.61 10.0859 237.653C10.1739 236.695 10.2686 235.526 10.3702 234.466C10.4717 233.407 10.5665 232.333 10.6815 231.273C10.7966 230.213 10.8981 229.154 11.02 228.101C11.1418 227.049 11.2501 225.982 11.3787 224.93C11.4803 224.053 11.5886 223.183 11.6969 222.306C11.8526 221.071 12.015 219.829 12.191 218.601C12.191 218.419 12.2384 218.229 12.2655 218.053C13.5009 209.066 15.1844 200.157 17.3084 191.366C19.5317 182.143 22.3708 173.107 25.8035 164.327C29.4517 155.143 33.7233 146.262 38.5833 137.757L78.0668 137.72Z" fill="#DCEEEF"/>
<path opacity="0.1" d="M94.468 247.137V348.231H241.199V247.137H94.468ZM94.468 351.352V438.167C95.3074 438.357 96.14 438.539 96.9658 438.693C98.0894 438.927 99.2063 439.139 100.35 439.321C100.567 439.358 100.79 439.394 101.027 439.416C101.474 439.497 101.934 439.562 102.381 439.628C103.511 439.796 104.635 439.935 105.765 440.045C106.3 440.103 106.842 440.154 107.383 440.198L108.69 440.308C109.4 440.366 110.104 440.41 110.802 440.432C111.235 440.432 111.668 440.476 112.115 440.49C112.453 440.49 112.792 440.49 113.144 440.49C113.496 440.49 113.997 440.49 114.423 440.49C115.005 440.49 115.587 440.49 116.163 440.49H116.941C117.523 440.49 118.105 440.491 118.681 440.432H118.721C119.121 440.432 119.527 440.432 119.933 440.374C120.046 440.381 120.159 440.381 120.271 440.374C120.61 440.374 120.948 440.374 121.273 440.322H121.51L123.778 440.132C124.522 440.059 125.274 439.964 126.032 439.877L127.575 439.679C133.854 438.73 140.063 437.303 146.156 435.412C159.843 431.29 173.232 425.524 186.912 421.301C204.599 415.856 224.141 413.182 241.233 419.839V351.352H94.468ZM241.199 134.592V0.00651871C225.135 -0.181379 209.114 1.84709 193.525 6.04265C156.37 16.1199 123.033 37.9771 94.468 65.8924V134.584H101.833V137.705H94.468V244.017H241.199V137.712H132.07V134.592H241.199ZM429.668 89.1308C420.476 88.78 411.338 85.6377 403.073 80.7854C387.267 71.5047 374.643 57.1744 360.537 45.0802C331.227 19.8907 294.877 4.69073 257.587 0.919977V134.592H467.053L467.575 134L429.668 89.1308ZM448.75 85.477L468.983 109.446V79.1924C462.207 80.0985 456.27 82.2543 448.777 85.4477L448.75 85.477ZM468.983 459.724V351.352H425.871C425.756 350.891 425.641 350.424 425.505 349.956C425.634 350.424 425.742 350.891 425.864 351.352H257.614V429.726C259.212 431.005 260.789 432.35 262.352 433.716C264.038 435.178 265.703 436.72 267.375 438.232L269.061 439.738C269.866 440.469 270.678 441.199 271.497 441.886C273.122 443.309 274.762 444.712 276.418 446.095C277.237 446.826 278.077 447.484 278.909 448.171C292.127 459.081 306.071 468.927 320.627 477.628C323.889 479.577 327.181 481.479 330.503 483.335C332.716 484.556 334.943 485.769 337.177 486.945C340.534 488.714 343.919 490.419 347.33 492.061C378.783 507.303 412.043 517.763 446.158 523.14C453.734 524.348 461.34 525.298 468.976 525.99V459.717H469.653L468.983 459.724ZM257.614 137.712V244.017H469.01V137.712H257.614ZM257.614 247.137V348.231H469.01V247.137H257.614ZM485.418 79.0608V112.808L511.241 82.2177C502.685 80.727 494.077 79.6625 485.418 79.0243V79.0608ZM485.418 247.174V348.231H691.026V247.137L485.418 247.174ZM690.274 467.748L690.999 351.352H485.418V527.152C498.661 527.753 511.925 527.582 525.152 526.641H525.382C531.699 526.212 537.988 525.588 544.247 524.77H544.389C577.781 520.574 610.432 511.169 641.321 496.847L690.274 467.748ZM730.672 263.784C729.9 261.818 729.094 259.867 728.275 257.938C726.746 254.284 725.128 250.732 723.463 247.181H707.42V348.231H747.98C747.96 319.614 741.251 290.384 730.692 263.747L730.672 263.784ZM707.42 351.388V451.503C718.846 439.679 728.499 426.153 735.451 410.69C743.81 392.07 747.635 371.908 747.946 351.374L707.42 351.388ZM707.42 217.716V244.024H721.96C717.561 234.968 712.715 226.174 707.44 217.68L707.42 217.716ZM567.979 98.8938C566.909 98.4554 565.84 98.0096 564.764 97.5784C553.413 93.053 541.813 89.2897 530.032 86.31L490.515 133.13L489.757 134L490.264 134.599H630.91C611.322 120.043 590.204 108.045 567.999 98.8573L567.979 98.8938ZM635.033 137.749H488.301L485.418 140.599V244.017H510.693H510.734H691.053V193.923C674.741 172.625 655.914 153.727 635.053 137.712L635.033 137.749Z" fill="#DCEEEF"/>
<path opacity="0.1" d="M78.0668 191.337V244.017H9.58496C9.58496 243.711 9.63234 243.396 9.65265 243.089C9.71357 242.249 9.77449 241.409 9.84218 240.576C9.91664 239.596 9.99787 238.61 10.0859 237.653C10.1739 236.695 10.2686 235.526 10.3702 234.466C10.4717 233.407 10.5665 232.333 10.6815 231.273C10.7966 230.213 10.8981 229.154 11.02 228.101C11.1418 227.049 11.2501 225.982 11.3787 224.93C11.4803 224.053 11.5886 223.183 11.6969 222.306C11.8526 221.071 12.015 219.829 12.191 218.601C12.191 218.419 12.2384 218.229 12.2655 218.053C13.5009 209.066 15.1844 200.157 17.3084 191.366L78.0668 191.337Z" fill="#DCEEEF"/>
<path opacity="0.1" d="M9.3684 247.145H78.0668V348.232H14.3978C14.2285 349.27 14.0661 350.315 13.8901 351.36H78.0668V432.884C77.9518 432.848 77.8502 432.804 77.7419 432.76C75.9278 431.985 74.1273 431.167 72.3267 430.29L71.176 429.727C69.3709 428.806 67.5659 427.832 65.7608 426.804C65.1313 426.446 64.5018 426.073 63.879 425.693C53.8581 419.633 44.7546 411.954 36.8843 402.923C36.6542 402.681 36.4376 402.426 36.2074 402.192C35.1108 400.906 34.0346 399.605 32.9922 398.275L31.8414 396.813C30.6095 395.184 29.4181 393.51 28.2606 391.815C28.0914 391.566 27.929 391.318 27.753 391.084C23.0454 384.038 19.1367 376.408 16.1103 368.357C16.0155 368.116 15.9343 367.853 15.8463 367.627C14.9167 365.045 14.0931 362.438 13.3756 359.807C13.0643 358.704 12.7664 357.615 12.5092 356.468C12.4144 356.132 12.3332 355.803 12.2588 355.474C8.41397 339.273 7.96045 322.443 7.96045 305.731C7.96045 303.78 7.96045 301.821 7.96045 299.885C7.96045 293.125 8.03491 286.322 8.14321 279.525C8.14321 277.764 8.2109 276.01 8.24475 274.242C8.33951 269.755 8.47489 265.268 8.65089 260.781C8.6915 259.532 8.74565 258.289 8.80657 257.047C8.80657 256.331 8.84042 255.615 8.90811 254.899C9.07056 252.297 9.20594 249.717 9.3684 247.145Z" fill="#DCEEEF"/>
<path opacity="0.1" d="M146.122 152.935V244.017H94.468V152.935H101.833V122.096H132.063V152.935H146.122Z" fill="#DCEEEF"/>
<path opacity="0.1" d="M146.122 247.138H94.4746V348.225H146.122V247.138Z" fill="#DCEEEF"/>
<path opacity="0.1" d="M94.468 351.36H146.122V435.398C140.029 437.288 133.82 438.712 127.541 439.658L125.998 439.863C125.24 439.958 124.488 440.038 123.744 440.119C122.999 440.199 122.228 440.257 121.476 440.309H121.239C120.914 440.309 120.562 440.352 120.244 440.36H119.899C119.493 440.36 119.087 440.404 118.681 440.418C118.105 440.455 117.53 440.462 116.941 440.469C116.691 440.469 116.454 440.469 116.203 440.469C115.621 440.469 115.046 440.469 114.464 440.469H113.184C112.839 440.469 112.507 440.469 112.149 440.469L110.842 440.418C110.165 440.418 109.434 440.338 108.73 440.287L107.431 440.184L105.813 440.024C104.676 439.914 103.545 439.775 102.428 439.607L101.075 439.402L100.398 439.3C99.2672 439.11 98.1503 438.906 97.0132 438.672C96.1806 438.518 95.3547 438.328 94.5154 438.146L94.468 351.36Z" fill="#DCEEEF"/>
<path opacity="0.1" d="M469.009 142.178H426.419V244.01H469.009V142.178Z" fill="#DCEEEF"/>
<path opacity="0.1" d="M469.016 247.138V348.232H257.614V304.627H370.216V330.35H426.419V247.138H469.016Z" fill="#DCEEEF"/>
<path opacity="0.1" d="M469.686 459.747H469.009V526.064C461.383 525.367 453.779 524.42 446.198 523.221C412.066 517.827 378.793 507.345 347.33 492.076C338.246 487.662 329.347 482.844 320.633 477.621C306.077 468.916 292.132 459.07 278.909 448.164C275.588 445.417 272.309 442.606 269.074 439.731C266.833 437.736 264.606 435.69 262.352 433.702C260.789 432.336 259.211 430.991 257.614 429.705V351.36H425.857C425.742 350.892 425.627 350.424 425.505 349.964C425.634 350.424 425.756 350.892 425.871 351.36H469.009V459.703C469.24 459.71 469.463 459.732 469.686 459.747Z" fill="#DCEEEF"/>
<path opacity="0.1" d="M580.088 134.593H552.336V125.283H564.777V97.55C565.856 97.9738 566.93 98.4099 567.999 98.8581V125.283H580.088V134.593Z" fill="#DCEEEF"/>
<path opacity="0.1" d="M646.953 244.017H510.706C510.706 244.017 510.706 244.017 510.754 244.054L510.693 244.017H485.417V142.185H492.579V217.454H525.307V172.877H552.342V137.72H580.095V172.907H607.131V217.483H646.953V244.017Z" fill="#DCEEEF"/>
<path opacity="0.1" d="M485.417 247.138V348.232H646.953V247.138H485.417ZM690.802 467.23L691.025 387.211H646.953V351.404H485.417V527.153C498.661 527.754 511.925 527.583 525.151 526.641H525.382C531.699 526.213 537.988 525.589 544.247 524.771H544.389C577.781 520.575 610.432 511.17 641.321 496.848" fill="#DCEEEF"/>
<path opacity="0.1" d="M710.29 351.36H747.973C747.641 371.887 743.824 392.049 735.471 410.669C728.519 426.139 718.86 439.666 707.447 451.482V387.175H710.29V351.36Z" fill="#DCEEEF"/>
<path opacity="0.1" d="M747.993 348.232H710.29V263.748H730.692C741.251 290.385 747.959 319.615 747.993 348.232Z" fill="#DCEEEF"/>
<path opacity="0.1" d="M469.016 170.488H446.198V202.415H469.016V170.488Z" fill="#DCEEEF"/>
<path opacity="0.1" d="M469.016 236.666H446.198V244.017H469.016V236.666Z" fill="#DCEEEF"/>
<path opacity="0.1" d="M469.016 247.138H446.198V268.586H469.016V247.138Z" fill="#DCEEEF"/>
<path opacity="0.1" d="M469.016 302.844H446.198V334.771H469.016V302.844Z" fill="#DCEEEF"/>
<path opacity="0.1" d="M469.016 369.022H446.198V400.95H469.016V369.022Z" fill="#DCEEEF"/>
<path opacity="0.1" d="M469.009 459.703C469.24 459.703 469.463 459.703 469.686 459.747H469.009V467.164H446.198V435.201H469.009V459.703Z" fill="#DCEEEF"/>
<path opacity="0.1" d="M469.009 501.364V526.027C461.383 525.331 453.779 524.383 446.198 523.185V501.364H469.009Z" fill="#DCEEEF"/>
<path opacity="0.1" d="M355.406 345.886H257.614V348.232H355.406V345.886Z" fill="#DCEEEF"/>
<path opacity="0.1" d="M355.406 351.352H257.614V360.341H355.406V351.352Z" fill="#DCEEEF"/>
<path opacity="0.1" d="M355.406 389.805H257.614V404.26H355.406V389.805Z" fill="#DCEEEF"/>
<path opacity="0.1" d="M355.399 433.724V448.179H278.909C275.588 445.441 272.307 442.63 269.067 439.746C266.827 437.751 264.606 435.705 262.345 433.724H355.399Z" fill="#DCEEEF"/>
<path opacity="0.1" d="M355.399 477.636V492.076H347.323C338.248 487.657 329.352 482.837 320.633 477.614L355.399 477.636Z" fill="#DCEEEF"/>
<path opacity="0.1" d="M544.409 256.937H525.158V277.72H544.409V256.937Z" fill="#DCEEEF"/>
<path opacity="0.1" d="M127.589 160.104H108.338V180.887H127.589V160.104Z" fill="#DCEEEF"/>
<path opacity="0.1" d="M127.589 208.378H108.338V229.161H127.589V208.378Z" fill="#DCEEEF"/>
<path opacity="0.1" d="M127.589 256.652H108.338V277.435H127.589V256.652Z" fill="#DCEEEF"/>
<path opacity="0.1" d="M127.589 304.92H108.338V325.703H127.589V304.92Z" fill="#DCEEEF"/>
<path opacity="0.1" d="M127.589 353.194H108.338V373.977H127.589V353.194Z" fill="#DCEEEF"/>
<path opacity="0.1" d="M127.589 401.468H108.338V422.251H127.589V401.468Z" fill="#DCEEEF"/>
<path opacity="0.1" d="M617.9 256.937H598.649V277.72H617.9V256.937Z" fill="#DCEEEF"/>
<path opacity="0.1" d="M544.409 308.201H525.158V328.984H544.409V308.201Z" fill="#DCEEEF"/>
<path opacity="0.1" d="M617.9 308.201H598.649V328.984H617.9V308.201Z" fill="#DCEEEF"/>
<path opacity="0.1" d="M544.409 359.457H525.158V380.24H544.409V359.457Z" fill="#DCEEEF"/>
<path opacity="0.1" d="M617.9 359.457H598.649V380.24H617.9V359.457Z" fill="#DCEEEF"/>
<path opacity="0.1" d="M544.409 410.72H525.158V431.503H544.409V410.72Z" fill="#DCEEEF"/>
<path opacity="0.1" d="M617.9 410.72H598.649V431.503H617.9V410.72Z" fill="#DCEEEF"/>
<path opacity="0.1" d="M544.409 461.983H525.158V482.766H544.409V461.983Z" fill="#DCEEEF"/>
<path opacity="0.1" d="M617.9 461.983H598.649V482.766H617.9V461.983Z" fill="#DCEEEF"/>
<path opacity="0.1" d="M525.158 526.641V513.239H544.402V524.734L525.158 526.641Z" fill="#DCEEEF"/>
<path opacity="0.1" d="M12.1841 218.039V229.928H78.0666V218.039H12.1841ZM18.75 229.183H13.3754V218.77H18.7906L18.75 229.183ZM25.3091 229.183H19.894V218.77H25.3091V229.183ZM31.8548 229.183H26.4396V218.77H31.8548V229.183ZM38.4139 229.183H33.0055V218.77H38.4207L38.4139 229.183ZM44.9663 229.183H39.5511V218.77H44.9663V229.183ZM51.5254 229.183H46.1102V218.77H51.5254V229.183ZM58.0846 229.183H52.6694V218.77H58.0846V229.183ZM64.6369 229.183H59.2218V218.77H64.6369V229.183ZM71.1893 229.183H65.7741V218.77H71.1893V229.183ZM77.7417 229.183H72.3265V218.77H77.7417V229.183Z" fill="#DCEEEF"/>
<path opacity="0.1" d="M12.1841 252.633V264.523H78.0666V252.633H12.1841ZM18.75 263.77H13.3754V253.386H18.7906L18.75 263.77ZM25.3091 263.77H19.894V253.386H25.3091V263.77ZM31.8548 263.77H26.4396V253.386H31.8548V263.77ZM38.4139 263.77H33.0055V253.386H38.4207L38.4139 263.77ZM44.9663 263.77H39.5511V253.386H44.9663V263.77ZM51.5254 263.77H46.1102V253.386H51.5254V263.77ZM58.0846 263.77H52.6694V253.386H58.0846V263.77ZM64.6369 263.77H59.2218V253.386H64.6369V263.77ZM71.1893 263.77H65.7741V253.386H71.1893V263.77ZM77.7417 263.77H72.3265V253.386H77.7417V263.77Z" fill="#DCEEEF"/>
<path opacity="0.1" d="M12.1841 287.242V299.154H78.0666V287.242H12.1841ZM18.75 298.379H13.3754V287.988H18.7906L18.75 298.379ZM25.3091 298.379H19.894V287.988H25.3091V298.379ZM31.8548 298.379H26.4396V287.988H31.8548V298.379ZM38.4139 298.379H33.0055V287.988H38.4207L38.4139 298.379ZM44.9663 298.379H39.5511V287.988H44.9663V298.379ZM51.5254 298.379H46.1102V287.988H51.5254V298.379ZM58.0846 298.379H52.6694V287.988H58.0846V298.379ZM64.6369 298.379H59.2218V287.988H64.6369V298.379ZM71.1893 298.379H65.7741V287.988H71.1893V298.379ZM77.7417 298.379H72.3265V287.988H77.7417V298.379Z" fill="#DCEEEF"/>
<path opacity="0.1" d="M12.1841 321.851V333.726H78.0666V321.851H12.1841ZM18.75 332.988H13.3754V322.589H18.7906L18.75 332.988ZM25.3091 332.988H19.894V322.589H25.3091V332.988ZM31.8548 332.988H26.4396V322.589H31.8548V332.988ZM38.4139 332.988H33.0055V322.589H38.4207L38.4139 332.988ZM44.9663 332.988H39.5511V322.589H44.9663V332.988ZM51.5254 332.988H46.1102V322.589H51.5254V332.988ZM58.0846 332.988H52.6694V322.589H58.0846V332.988ZM64.6369 332.988H59.2218V322.589H64.6369V332.988ZM71.1893 332.988H65.7741V322.589H71.1893V332.988ZM77.7417 332.988H72.3265V322.589H77.7417V332.988Z" fill="#DCEEEF"/>
<path opacity="0.1" d="M12.4685 356.453C12.7325 357.571 13.0303 358.689 13.3417 359.793V357.199H18.7569V367.59H15.8598C15.9478 367.831 16.0358 368.094 16.1238 368.321H78.0667V356.453H12.4685ZM25.3296 367.59H19.9144V357.199H25.3296V367.59ZM31.8752 367.59H26.46V357.199H31.8752V367.59ZM38.4343 367.59H33.0056V357.199H38.4208L38.4343 367.59ZM44.9867 367.59H39.5715V357.199H44.9867V367.59ZM51.5459 367.59H46.1307V357.199H51.5459V367.59ZM58.105 367.59H52.6898V357.199H58.105V367.59ZM64.6574 367.59H59.2422V357.199H64.6574V367.59ZM71.2098 367.59H65.7946V357.199H71.2098V367.59ZM77.7621 367.59H72.347V357.199H77.7621V367.59Z" fill="#DCEEEF"/>
<path opacity="0.1" d="M27.7664 391.062C27.9356 391.296 28.098 391.559 28.274 391.793H31.8548V396.784C32.2407 397.281 32.6197 397.778 33.0123 398.246V391.764H38.4275V402.192H36.2344C36.451 402.433 36.6608 402.689 36.9113 402.923H78.087V391.062H27.7664ZM44.9664 402.192H39.5512V391.808H44.9664V402.192ZM51.5255 402.192H46.1103V391.808H51.5255V402.192ZM58.0847 402.192H52.6695V391.808H58.0847V402.192ZM64.637 402.192H59.2218V391.808H64.637V402.192ZM71.1894 402.192H65.7742V391.808H71.1894V402.192ZM77.7418 402.192H72.3266V391.808H77.7418V402.192Z" fill="#DCEEEF"/>
<path opacity="0.1" d="M63.906 425.664C64.522 426.044 65.1515 426.395 65.7878 426.775V426.409H71.203V429.698L72.3537 430.275V426.409H77.7689V432.731C77.8727 432.786 77.9816 432.83 78.0938 432.862V425.664H63.906Z" fill="#DCEEEF"/>
<path opacity="0.1" d="M510.706 244.017H510.747H510.706ZM469.009 459.696H469.686H469.009ZM425.505 349.957C425.634 350.424 425.742 350.892 425.864 351.352C425.756 350.892 425.641 350.424 425.505 349.957ZM510.706 243.996H510.747H510.706ZM101.86 134.571V137.691H132.097V134.571H101.86ZM469.009 459.696H469.686H469.009ZM425.505 349.957C425.634 350.424 425.742 350.892 425.864 351.352C425.756 350.892 425.641 350.424 425.505 349.957ZM510.706 243.996H510.747H510.706ZM469.009 459.674H469.686H469.009ZM425.505 349.957C425.634 350.424 425.742 350.892 425.864 351.352C425.756 350.892 425.641 350.424 425.505 349.957Z" fill="#DCEEEF"/>
<path d="M312.456 277.45C312.456 277.45 309.789 277.048 309.789 272.854C309.789 268.659 307.88 260.825 307.88 260.825C307.88 260.789 306.229 247.182 303.948 245.019C301.666 242.856 298.736 230.155 298.736 230.155C298.736 230.155 298.235 223.264 297.212 221.78C296.19 220.297 294.81 216.665 292.772 211.484C290.735 206.303 282.24 202.715 282.24 202.715C282.24 202.715 266.881 193.098 262.528 189.963C262.133 189.705 261.763 189.404 261.425 189.064C260.667 187.99 257.363 187.968 257.363 187.968C257.018 185.615 256.687 182.911 256.578 180.463C256.578 180.2 256.578 179.937 256.544 179.673C261.398 176.576 265.053 171.693 266.84 165.92C266.921 165.643 266.989 165.35 267.063 165.073C267.354 164.969 267.622 164.802 267.849 164.58C268.076 164.359 268.258 164.088 268.383 163.787C268.776 162.844 268.783 161.74 269.27 160.864C269.839 159.826 270.922 159.271 271.775 158.489C273.927 156.516 274.482 153.191 274.381 150.165C274.313 147.717 273.947 145.247 274.09 142.814L274.13 142.2C274.171 141.834 274.218 141.469 274.279 141.118C274.611 139.306 275.335 137.596 275.741 135.798C276.147 134.001 276.188 131.976 275.24 130.427C273.853 128.154 270.962 127.701 268.424 127.468C265.547 127.204 262.975 127.548 261.134 124.968C260.272 123.62 259.303 122.356 258.237 121.19C257.858 120.81 254.175 118.384 254.175 118.223C250.581 116.426 246.508 116.089 242.702 117.273C240.793 117.873 238.992 118.852 237.057 119.341C232.88 120.408 228.074 119.254 224.527 121.833C222.551 123.295 221.366 125.619 220.256 127.884C219.353 129.75 218.437 131.613 217.508 133.474C216.012 136.536 214.489 139.649 213.859 143.04C213.727 143.778 213.645 144.525 213.616 145.276V145.313C213.616 145.583 213.616 145.854 213.616 146.124V146.467C213.616 146.723 213.616 146.972 213.656 147.198C213.697 147.425 213.69 147.498 213.71 147.651C213.731 147.805 213.764 148.148 213.805 148.382C213.846 148.616 213.927 149.025 214.008 149.347C214.042 149.486 214.089 149.617 214.13 149.749C214.198 149.997 214.279 150.238 214.367 150.479C214.414 150.604 214.462 150.735 214.516 150.859C214.617 151.115 214.739 151.364 214.861 151.59C214.915 151.692 214.956 151.787 215.01 151.882C215.199 152.222 215.407 152.549 215.633 152.862C217.081 154.813 219.213 156.055 220.791 157.882C220.791 157.955 220.791 158.028 220.791 158.094C220.791 158.299 220.791 158.496 220.791 158.7C220.874 162.775 221.879 166.766 223.717 170.325C225.555 173.885 228.171 176.906 231.337 179.125C231.337 179.403 231.371 179.688 231.384 179.966C231.516 182.135 231.491 184.312 231.31 186.477C231.034 186.126 230.689 185.847 230.3 185.66C229.911 185.473 229.488 185.382 229.062 185.395C228.772 185.38 228.48 185.407 228.196 185.476L228.135 185.425V185.49C226.646 185.885 224.811 187.558 223.058 192.316C223.058 192.316 217.724 198.805 213.663 198.535C209.602 198.264 199.319 205.287 199.319 205.287C199.319 205.287 189.288 212.317 187.135 219.478C185.932 223.539 184.49 227.513 182.817 231.375L170.416 258.962L168.128 280.848C168.128 280.848 169.394 290.582 169.143 292.065C168.893 293.549 174.349 306.929 174.349 306.929C174.349 306.929 192.374 341.122 199.739 342.876L200.267 342.474C200.582 342.651 200.916 342.786 201.262 342.876L202.778 341.721C202.869 343.008 202.831 344.302 202.663 345.579C201.648 348.956 203.042 370.988 204.816 375.307C206.589 379.626 205.96 436.253 205.96 436.253L205.709 441.251C205.709 441.251 205.709 441.412 205.77 441.69L205.709 442.874L205.892 442.976C206.082 444.561 206.02 446.17 205.709 447.733C205.073 449.925 204.816 456.122 204.816 456.122C204.816 456.122 199.746 491.111 202.149 498.141C204.552 505.171 206.596 512.874 206.596 512.874C206.596 512.874 209.134 521.643 206.718 523.141C204.301 524.639 197.431 527.153 198.846 530.807C200.132 534.183 205.012 543.23 205.736 544.552L205.675 545.247L204.68 556.888C204.842 558.425 205.228 559.925 205.824 561.331C206.914 563.867 209.033 566.497 213.06 566.212C213.737 566.161 214.523 566.073 215.281 565.964C222.652 564.897 231.729 561.345 231.729 561.345C231.258 561.022 230.826 560.637 230.443 560.198C230.081 559.819 229.794 559.365 229.599 558.862C229.405 558.36 229.308 557.82 229.313 557.275C229.421 555.156 225.746 545.057 224.832 542.572C224.69 542.214 224.615 542.009 224.615 542.009C224.615 542.009 232.995 532.553 231.601 524.171C231.601 524.171 222.327 518.325 225.38 515.117C228.433 511.909 233.889 502.694 233.889 502.694C233.889 502.694 234.139 468.239 233.889 463.094C233.627 459.523 233.784 455.931 234.356 452.403C234.457 451.869 234.579 451.35 234.708 450.839C238.93 451.519 243.192 451.869 247.46 451.884C249.017 451.884 250.601 451.884 252.199 451.782C252.199 452.269 252.219 452.795 252.26 453.36C252.612 461.895 253.268 476.861 253.803 482.423C254.561 490.395 258.751 511.88 258.751 511.88C258.751 511.88 250.757 517.419 260.146 531.07C260.146 531.07 260.146 536.017 259.523 536.733C258.858 539.074 258.322 541.456 257.919 543.865C257.526 546.438 257.363 549.039 258 550.391C259.523 553.621 268.661 553.358 268.661 553.358L268.884 553.314C270.609 553.122 272.353 553.301 274.013 553.842C275.674 554.382 277.218 555.274 278.557 556.464C282.03 559.475 295.209 558.152 302.343 557.195C305.139 556.815 307.007 556.464 307.007 556.464C307.098 556.122 307.13 555.766 307.102 555.412C307.028 553.519 305.653 549.368 296.339 545.663C296.339 545.663 287.58 539.306 287.702 533.766H287.519H286.504C287.242 533.722 287.716 533.766 287.716 533.766C287.716 533.766 284.284 520.247 285.685 519.151C287.086 518.055 282.889 503.074 282.889 503.074C282.889 503.074 280.486 477.936 280.358 476.175C280.363 474.663 280.575 473.161 280.987 471.717L280.358 457.935C280.358 457.935 280.236 453.353 280.358 451.862C280.337 450.568 280.24 449.277 280.067 447.996C280.006 447.485 279.945 446.951 279.877 446.425C283.16 445.526 285.292 444.693 285.292 444.693L284.913 396.718C287.702 390.872 288.217 378.047 288.203 368.949C288.203 363.103 287.959 358.777 287.959 358.777L291.77 352.061C291.77 352.061 292.65 344.023 291.256 342.262C290.64 341.465 290.917 340.639 291.425 339.96C291.689 339.734 291.967 339.529 292.258 339.346C292.258 339.346 292.217 339.28 292.17 339.185C292.436 338.945 292.719 338.728 293.016 338.535C293.016 338.535 291.662 336.269 292.874 335.312C294.011 336.145 295.026 336.774 295.798 337.285C295.744 337.819 295.689 338.126 295.689 338.126L296.014 337.395C296.759 337.848 297.212 338.126 297.212 338.126C297.212 338.126 303.183 325.286 303.054 323.393C302.926 321.501 307.116 313.528 307.116 313.528C307.116 313.528 307.623 309.341 309.911 307.587C312.199 305.833 311.685 293.125 311.685 293.125C311.685 293.125 312.321 286.504 313.844 283.8C315.367 281.097 312.456 277.45 312.456 277.45ZM198.223 271.816L198.338 274.878C197.661 273.701 197.174 272.854 197.174 272.854L198.223 271.816Z" fill="url(#paint0_linear_11:363)"/>
<path d="M297.538 332.579L296.076 339.302C296.076 339.302 284.365 332.849 282.253 324.65C280.141 316.451 285.787 313.338 285.787 313.338L296.698 318.329L297.538 332.579Z" fill="white"/>
<path opacity="0.1" d="M297.538 332.579L296.076 339.302C296.076 339.302 284.365 332.849 282.253 324.65C280.141 316.451 285.787 313.338 285.787 313.338L296.698 318.329L297.538 332.579Z" fill="black"/>
<path d="M231.817 561.389C231.817 561.389 220.987 565.686 213.541 566.227C209.588 566.512 207.51 563.896 206.441 561.375C205.856 559.973 205.479 558.481 205.324 556.954L206.292 545.371L206.806 539.203L222.625 534.767L224.866 542.163L225.076 542.726C225.976 545.196 229.584 555.244 229.475 557.341C229.471 557.878 229.567 558.41 229.758 558.906C229.949 559.402 230.23 559.852 230.586 560.227C230.949 560.67 231.363 561.06 231.817 561.389Z" fill="white"/>
<path d="M305.796 555.499C305.823 555.851 305.791 556.205 305.701 556.544C305.701 556.544 282.537 560.717 277.799 556.544C276.463 555.325 274.906 554.421 273.227 553.89C271.549 553.359 269.786 553.213 268.052 553.46C268.052 553.46 259.09 553.724 257.594 550.537C256.971 549.2 257.133 546.606 257.519 544.048C257.913 541.652 258.437 539.282 259.09 536.952L259.448 536.645L261.581 534.797L286.545 534H286.734C286.612 539.51 295.209 545.831 295.209 545.831C304.34 549.485 305.687 553.614 305.796 555.499Z" fill="white"/>
<path opacity="0.1" d="M305.796 555.499C305.819 555.851 305.785 556.205 305.694 556.544C305.694 556.544 282.537 560.717 277.799 556.544C276.464 555.326 274.908 554.423 273.231 553.892C271.553 553.361 269.792 553.214 268.059 553.46C268.059 553.46 259.09 553.724 257.6 550.537C256.978 549.193 257.133 546.606 257.519 544.048C260.971 544.421 266.42 545.349 268.559 547.563C271.795 550.932 277.278 554.294 280.642 554.557C283.275 554.739 299.027 555.28 305.796 555.499Z" fill="black"/>
<path opacity="0.1" d="M231.817 561.389C231.817 561.389 220.987 565.686 213.541 566.227C209.588 566.512 207.51 563.896 206.447 561.367C209.202 562.369 213.027 563.421 215.037 562.456C217.42 561.316 225.868 560.578 230.606 560.264C230.966 560.69 231.373 561.068 231.817 561.389Z" fill="black"/>
<path d="M247.887 215.116C238.952 211.367 227.458 198.98 230.328 193.193C230.966 191.732 231.345 190.156 231.445 188.545C231.63 186.358 231.657 184.159 231.526 181.968C231.325 178.379 230.925 174.807 230.328 171.27C230.328 171.27 258.223 171.949 256.599 176.385C256.125 177.686 256.05 179.944 256.179 182.472C256.308 185.001 256.646 187.858 256.998 190.277C257.485 193.595 257.973 196.123 257.973 196.123C257.973 196.123 256.267 198.703 255.265 198.842C254.263 198.98 260.708 220.458 247.887 215.116Z" fill="#CF6F80"/>
<path opacity="0.1" d="M225.055 542.726L224.845 542.974C216.506 532.086 206.42 545.656 206.42 545.656L206.271 545.371L206.786 539.203L222.605 534.767L224.845 542.163L225.055 542.726Z" fill="black"/>
<path opacity="0.1" d="M286.741 534.767C286.741 534.767 280.649 534.629 277.4 537.727C274.151 540.825 258.447 538.399 259.124 537.727C259.324 537.394 259.445 537.012 259.476 536.616L261.608 534.767L286.572 533.971C286.667 534.461 286.741 534.767 286.741 534.767Z" fill="black"/>
<path d="M235.432 449.26C234.979 450.471 234.634 451.727 234.403 453.009C233.839 456.521 233.682 460.095 233.936 463.649C234.187 468.765 233.936 503.045 233.936 503.045C233.936 503.045 228.582 512.187 225.597 515.409C222.612 518.632 231.689 524.42 231.689 524.42C233.043 532.751 224.839 542.163 224.839 542.163C216.499 531.274 206.414 544.852 206.414 544.852C206.414 544.852 200.931 534.621 199.563 530.967C198.196 527.314 204.918 524.785 207.28 523.302C209.642 521.818 207.165 513.071 207.165 513.071C207.165 513.071 205.168 505.405 202.799 498.412C200.43 491.418 205.412 456.605 205.412 456.605C205.412 456.605 205.669 450.422 206.285 448.267C206.596 446.711 206.658 445.109 206.468 443.531C206.427 442.998 206.38 442.552 206.346 442.252C206.312 441.953 206.285 441.814 206.285 441.814L206.38 441.639L209.764 434.828C209.764 434.828 237.057 444.971 235.432 449.26Z" fill="#DCEEEF"/>
<path d="M286.741 533.964C286.741 533.964 280.649 533.825 277.4 536.887C274.151 539.949 258.447 537.559 259.123 536.887C259.8 536.214 259.746 531.238 259.746 531.238C250.534 517.66 258.392 512.15 258.392 512.15C258.392 512.15 254.277 490.775 253.532 482.847C253.011 477.307 252.368 462.422 252.023 453.923C251.874 450.269 251.786 447.755 251.786 447.755L259.313 446.118L260.281 445.906L278.435 441.975C278.435 441.975 278.936 445.629 279.275 448.617C279.443 449.894 279.538 451.18 279.559 452.469C279.437 453.93 279.559 458.505 279.559 458.505L280.175 472.221C279.773 473.66 279.565 475.154 279.559 476.657C279.681 478.404 282.043 503.41 282.043 503.41C282.043 503.41 286.152 518.333 284.751 519.407C283.35 520.481 286.741 533.964 286.741 533.964Z" fill="#DCEEEF"/>
<path opacity="0.1" d="M256.599 176.385C256.125 177.686 256.05 179.944 256.179 182.472C252.443 184.901 248.147 186.143 243.787 186.055C239.426 185.968 235.176 184.553 231.526 181.975C231.326 178.384 230.925 174.809 230.328 171.27C230.328 171.27 258.223 171.935 256.599 176.385Z" fill="black"/>
<path d="M267.382 160.235C267.387 162.868 267.003 165.486 266.245 167.989C264.549 173.596 261.071 178.376 256.427 181.483C251.782 184.591 246.269 185.825 240.863 184.969C235.457 184.113 230.505 181.221 226.883 176.805C223.26 172.388 221.201 166.732 221.068 160.834C221.068 160.63 221.068 160.44 221.068 160.235C221.016 156.916 221.576 153.618 222.716 150.535C223.857 147.452 225.554 144.644 227.71 142.277C229.866 139.909 232.437 138.029 235.273 136.745C238.109 135.462 241.153 134.801 244.228 134.801C247.304 134.801 250.348 135.462 253.184 136.745C256.02 138.029 258.591 139.909 260.747 142.277C262.903 144.644 264.6 147.452 265.741 150.535C266.881 153.618 267.441 156.916 267.389 160.235H267.382Z" fill="#CF6F80"/>
<path opacity="0.1" d="M247.887 215.116C238.952 211.367 227.458 198.98 230.328 193.193C230.966 191.732 231.345 190.156 231.445 188.545L243.677 199.397L251.244 206.098L256.998 190.284C257.485 193.602 257.973 196.13 257.973 196.13C257.973 196.13 256.267 198.71 255.265 198.849C254.263 198.988 260.708 220.458 247.887 215.116Z" fill="black"/>
<path d="M279.519 263.076L269.304 448.325L255.983 449.268L221.488 341.852L227.147 214.326L228.338 187.383L243.677 200.983L251.251 207.684L257.174 191.41L268.187 201.772L279.519 263.076Z" fill="#DCEEEF"/>
<path opacity="0.1" d="M235.432 449.261C234.978 450.472 234.634 451.727 234.403 453.009C224.71 451.394 215.296 448.219 206.474 443.59L206.292 443.487L206.352 442.311L206.386 441.697L209.771 434.886C209.771 434.886 237.057 444.971 235.432 449.261Z" fill="black"/>
<path opacity="0.1" d="M259.469 453.039C256.991 453.493 254.492 453.801 251.982 453.959C251.833 450.306 251.745 447.792 251.745 447.792L259.272 446.155L259.469 453.039Z" fill="black"/>
<path opacity="0.1" d="M279.234 448.654C274.422 450.006 266.989 451.526 260.335 450.576L260.24 445.943L278.395 442.011C278.395 442.011 278.896 445.629 279.234 448.654Z" fill="black"/>
<path opacity="0.1" d="M260.213 451.424C232.461 456.539 207.043 441.872 207.043 441.872L207.287 436.903C207.287 436.903 207.916 380.568 206.17 376.25C204.423 371.931 203.063 350.03 204.051 346.668C205.039 343.307 200.443 292.898 200.443 292.898L199.699 272.437L172.447 260.518L184.631 233.1C186.277 229.256 187.692 225.301 188.868 221.261C190.987 214.144 200.822 207.15 200.822 207.15C200.822 207.15 210.908 200.164 214.895 200.427C218.882 200.69 224.108 194.245 224.108 194.245C227.966 183.627 231.459 188.435 231.459 188.435C231.459 188.94 231.459 188.435 231.269 190.007C229.915 201.662 253.16 238.493 253.492 239.143L255.705 297.356L257.946 371.025L260.213 451.424Z" fill="black"/>
<path d="M259.469 451.424C231.716 456.539 206.292 441.872 206.292 441.872L206.542 436.903C206.542 436.903 207.172 380.568 205.419 376.25C203.665 371.931 202.312 350.03 203.307 346.668C204.302 343.307 199.699 292.898 199.699 292.898L198.947 272.437L171.682 260.474L183.866 233.056C185.508 229.21 186.923 225.256 188.103 221.218C190.215 214.1 200.057 207.106 200.057 207.106C200.057 207.106 210.143 200.12 214.123 200.383C218.104 200.647 223.336 194.201 223.336 194.201C227.201 183.583 231.459 188.392 231.459 188.392C231.459 188.896 231.053 189.122 231.269 189.963C234.248 201.268 252.416 238.449 252.747 239.099L254.988 297.312L257.228 370.981L259.469 451.424Z" fill="white"/>
<path opacity="0.1" d="M251.989 240.758C249.004 239.414 233.192 219.924 233.192 219.924V215.488C232.616 214.027 229.198 214.918 226.423 215.941L227.614 188.998L228.968 190.211C231.933 201.509 251.644 240.108 251.989 240.758Z" fill="black"/>
<path d="M252.74 239.143C249.749 237.799 233.936 218.309 233.936 218.309V213.873C233.361 212.412 229.943 213.303 227.167 214.326L228.365 187.383L229.719 188.596C232.691 199.894 252.409 238.5 252.74 239.143Z" fill="white"/>
<path opacity="0.1" d="M207.043 336.343C207.415 336.343 226.341 334.194 226.341 334.194C226.341 334.194 237.801 358.521 237.05 364.44C236.299 370.36 234.938 375.599 230.328 374.671C225.719 373.743 205.52 375.402 205.52 375.402L207.043 336.343Z" fill="black"/>
<path d="M206.292 334.727C206.664 334.727 225.59 332.579 225.59 332.579C225.59 332.579 237.043 356.914 236.298 362.825C235.554 368.737 234.18 373.984 229.577 373.056C224.974 372.128 204.769 373.787 204.769 373.787L206.292 334.727Z" fill="white"/>
<path d="M220.554 323.306C220.554 323.306 237.923 333.383 238.295 336.459C238.668 339.536 229.455 335.115 227.465 334.581C226.155 334.241 224.822 334.016 223.478 333.909L210.204 334.296L220.554 323.306Z" fill="#CF6F80"/>
<path opacity="0.1" d="M247.143 242.015C248.152 242.015 248.97 241.132 248.97 240.042C248.97 238.952 248.152 238.069 247.143 238.069C246.133 238.069 245.315 238.952 245.315 240.042C245.315 241.132 246.133 242.015 247.143 242.015Z" fill="black"/>
<path d="M247.143 241.211C248.152 241.211 248.97 240.328 248.97 239.238C248.97 238.149 248.152 237.265 247.143 237.265C246.133 237.265 245.315 238.149 245.315 239.238C245.315 240.328 246.133 241.211 247.143 241.211Z" fill="#3F3D56"/>
<path opacity="0.1" d="M250.507 327.427C251.516 327.427 252.334 326.544 252.334 325.454C252.334 324.364 251.516 323.481 250.507 323.481C249.497 323.481 248.679 324.364 248.679 325.454C248.679 326.544 249.497 327.427 250.507 327.427Z" fill="black"/>
<path d="M250.507 326.616C251.516 326.616 252.334 325.733 252.334 324.643C252.334 323.553 251.516 322.67 250.507 322.67C249.497 322.67 248.679 323.553 248.679 324.643C248.679 325.733 249.497 326.616 250.507 326.616Z" fill="#3F3D56"/>
<path opacity="0.1" d="M248.963 284.721C249.973 284.721 250.791 283.838 250.791 282.748C250.791 281.658 249.973 280.775 248.963 280.775C247.954 280.775 247.136 281.658 247.136 282.748C247.136 283.838 247.954 284.721 248.963 284.721Z" fill="black"/>
<path d="M248.963 283.917C249.973 283.917 250.791 283.034 250.791 281.944C250.791 280.855 249.973 279.971 248.963 279.971C247.954 279.971 247.136 280.855 247.136 281.944C247.136 283.034 247.954 283.917 248.963 283.917Z" fill="#3F3D56"/>
<path d="M291.093 333.5C291.093 333.5 292.339 335.517 291.093 336.459C289.848 337.402 291.215 339.682 291.215 339.682C291.215 339.682 288.108 341.648 289.476 343.416C290.843 345.185 289.976 353.172 289.976 353.172L286.24 359.851C286.24 359.851 286.463 364.155 286.477 369.972C286.477 379.048 285.983 391.808 283.248 397.624L283.627 445.351C283.627 445.351 270.543 450.51 259.59 448.939L257.966 372.355C257.966 372.355 260.335 328.925 261.208 320.594C261.719 316.269 261.927 311.909 261.831 307.55C261.831 307.55 261.459 294.513 260.206 288.463C260.206 288.463 258.853 262.25 258.717 254.994C258.656 251.522 258.826 241.394 259.015 231.763C259.225 221.232 259.462 211.301 259.462 211.301L256.991 190.197C256.991 190.197 259.462 189.926 260.206 191C260.54 191.337 260.903 191.638 261.29 191.899C265.554 195.012 280.622 204.585 280.622 204.585C280.622 204.585 288.961 208.166 290.958 213.296C292.955 218.426 294.342 222.065 295.31 223.527C296.278 224.988 296.806 231.858 296.806 231.858C296.806 231.858 299.676 244.5 301.917 246.641C304.157 248.782 305.796 262.404 305.796 262.404L285.996 279.211C285.996 279.211 284.257 307.17 283.884 308.252C283.512 309.333 291.093 333.5 291.093 333.5Z" fill="white"/>
<path d="M291.845 333.5C291.845 333.5 293.083 335.517 291.845 336.459C290.606 337.402 291.96 339.682 291.96 339.682C291.96 339.682 288.873 341.67 290.227 343.438C291.581 345.207 290.728 353.194 290.728 353.194L286.991 359.873C286.991 359.873 287.215 364.177 287.235 369.994C287.235 379.07 286.741 391.83 284.006 397.647L284.379 445.373C284.379 445.373 271.274 450.532 260.335 448.961L258.717 372.377C258.717 372.377 261.086 328.947 261.96 320.616C262.471 316.292 262.677 311.931 262.576 307.572C262.576 307.572 262.203 294.535 260.958 288.485C260.958 288.485 259.604 262.272 259.462 255.016C259.401 251.544 259.577 241.416 259.76 231.784C259.97 221.254 260.207 211.323 260.207 211.323L256.944 189.933C256.944 189.933 260.207 189.933 260.958 191.022C261.288 191.363 261.651 191.664 262.041 191.921C266.305 195.034 281.38 204.607 281.38 204.607C281.38 204.607 289.712 208.188 291.709 213.318C293.706 218.448 295.094 222.087 296.069 223.549C297.043 225.01 297.558 231.879 297.558 231.879C297.558 231.879 300.428 244.522 302.668 246.663C304.909 248.804 306.527 262.396 306.527 262.396L286.727 279.204C286.727 279.204 284.988 307.163 284.609 308.245C284.23 309.326 291.845 333.5 291.845 333.5Z" fill="white"/>
<path opacity="0.1" d="M268.133 217.527L269.92 223.154L260.511 233.385C260.721 222.862 260.958 212.923 260.958 212.923L257.695 191.534C257.695 191.534 260.958 191.534 261.709 192.623C262.039 192.962 262.402 193.261 262.792 193.514L270.793 218.433L268.133 217.527Z" fill="black"/>
<path d="M267.382 215.912L269.175 221.539L259.767 231.77C259.976 221.239 260.213 211.308 260.213 211.308L256.944 189.919C256.944 189.919 260.213 189.919 260.958 191.008C261.29 191.346 261.653 191.647 262.041 191.907L270.049 216.818L267.382 215.912Z" fill="white"/>
<path opacity="0.1" d="M267.382 160.235C267.387 162.868 267.003 165.486 266.245 167.989C266.117 168.01 265.986 168.004 265.861 167.97C265.735 167.936 265.617 167.875 265.514 167.791C265.338 161.214 262.339 155.039 258.65 149.785C257.614 148.199 256.358 146.794 254.927 145.62C253.48 144.446 251.679 143.897 249.877 144.078C247.846 144.377 246.053 145.868 244.002 146.058C241.294 146.299 238.871 144.275 236.184 144.173C235.091 144.184 234.013 144.447 233.022 144.943C232.031 145.44 231.15 146.159 230.437 147.052C229.025 148.855 227.976 150.956 227.357 153.22C226.292 156.653 225.713 160.24 225.637 163.86C225.604 165.906 225.421 168.471 223.661 169.216C223.793 167.711 223.635 166.193 223.196 164.758C222.756 163.323 222.046 162.002 221.109 160.878L221.068 160.834C221.068 160.63 221.068 160.44 221.068 160.235C221.016 156.916 221.576 153.618 222.716 150.535C223.857 147.452 225.554 144.644 227.71 142.277C229.866 139.909 232.437 138.029 235.273 136.745C238.109 135.462 241.153 134.801 244.228 134.801C247.304 134.801 250.348 135.462 253.184 136.745C256.02 138.029 258.591 139.909 260.747 142.277C262.903 144.644 264.6 147.452 265.741 150.535C266.881 153.618 267.441 156.916 267.389 160.235H267.382Z" fill="black"/>
<path d="M253.817 120.533C250.299 118.746 246.298 118.408 242.567 119.583C240.692 120.182 238.925 121.154 237.023 121.643C232.961 122.703 228.223 121.556 224.737 124.121C222.801 125.582 221.637 127.891 220.554 130.135L217.846 135.703C216.371 138.751 214.881 141.849 214.265 145.203C213.649 148.557 214.022 152.314 215.991 155.01C217.427 156.976 219.545 158.211 221.102 160.06C222.035 161.184 222.742 162.505 223.18 163.938C223.618 165.372 223.777 166.888 223.647 168.39C225.414 167.66 225.583 165.087 225.624 163.041C225.699 159.422 226.279 155.835 227.343 152.401C227.961 150.136 229.01 148.036 230.423 146.234C231.137 145.341 232.018 144.622 233.009 144.126C234 143.63 235.078 143.367 236.17 143.354C238.877 143.457 241.307 145.474 243.988 145.232C246.019 145.05 247.819 143.552 249.863 143.259C251.666 143.075 253.467 143.625 254.913 144.801C256.344 145.974 257.598 147.379 258.629 148.967C262.325 154.221 265.324 160.381 265.5 166.973C266.265 167.579 267.368 166.79 267.747 165.855C268.126 164.919 268.14 163.823 268.62 162.932C269.175 161.901 270.238 161.353 271.071 160.579C273.183 158.613 273.711 155.302 273.629 152.299C273.548 149.296 273.007 146.248 273.535 143.296C273.853 141.484 274.57 139.788 274.963 137.998C275.355 136.208 275.403 134.198 274.476 132.656C273.122 130.391 270.272 129.945 267.788 129.733C264.965 129.47 262.44 129.806 260.64 127.241C259.795 125.903 258.843 124.646 257.797 123.485C257.438 123.105 253.817 120.693 253.817 120.533Z" fill="#512E4E"/>
<path opacity="0.1" d="M180.245 274.637L173.171 260.518L170.93 282.302C170.93 282.302 172.176 291.978 171.925 293.461C171.675 294.945 177.029 308.245 177.029 308.245C177.029 308.245 194.717 342.254 201.939 344.008L226.341 325.184L219.87 316.312C219.87 316.312 217.63 315.37 217.068 316.312C217.068 316.312 205.053 293.995 203.807 292.38C202.562 290.765 202.806 287.542 202.806 287.542C202.806 287.542 200.937 285.393 201.56 283.377C202.183 281.36 197.952 274.366 197.952 274.366L201.811 270.471L180.245 274.637Z" fill="black"/>
<path d="M173.543 258.91L171.675 260.518L169.435 282.302C169.435 282.302 170.68 291.978 170.43 293.461C170.179 294.945 175.54 308.245 175.54 308.245C175.54 308.245 193.221 342.254 200.443 344.008L224.852 325.184L218.374 316.312C218.374 316.312 216.134 315.37 215.572 316.312C215.572 316.312 203.557 293.995 202.312 292.38C201.066 290.765 201.317 287.542 201.317 287.542C201.317 287.542 199.448 285.393 200.071 283.377C200.694 281.36 196.456 274.366 196.456 274.366L200.315 270.471L173.543 258.91Z" fill="white"/>
<path opacity="0.1" d="M289.476 344.249C290.829 346.025 289.976 353.998 289.976 353.998L286.24 360.677C286.24 360.677 286.463 364.989 286.477 370.798L280.195 372.917C279.628 373.109 279.026 373.151 278.44 373.04C277.854 372.929 277.301 372.669 276.828 372.281C276.354 371.892 275.973 371.387 275.717 370.808C275.461 370.228 275.337 369.591 275.356 368.949L276.439 331.234L291.093 337.285C289.848 338.221 291.215 340.515 291.215 340.515C291.215 340.515 288.108 342.474 289.476 344.249Z" fill="black"/>
<path d="M290.227 343.438C291.581 345.214 290.728 353.194 290.728 353.194L286.992 359.873C286.992 359.873 287.215 364.177 287.235 369.994L280.839 372.15C280.283 372.337 279.693 372.377 279.12 372.268C278.547 372.159 278.006 371.904 277.542 371.523C277.079 371.143 276.706 370.649 276.455 370.082C276.204 369.514 276.083 368.891 276.1 368.262L277.19 330.431L291.852 336.481C290.599 337.417 291.967 339.704 291.967 339.704C291.967 339.704 288.873 341.67 290.227 343.438Z" fill="white"/>
<path d="M295.08 325.461C295.08 325.461 294.085 332.323 291.594 332.725C289.103 333.127 287.986 343.826 285.502 343.446C283.018 343.066 284.663 333.5 284.751 331.644C284.839 329.788 282.043 322.1 284.135 320.353C286.226 318.607 292.847 320.353 292.847 320.353L295.08 325.461Z" fill="#CF6F80"/>
<path opacity="0.1" d="M300.38 272.62L305.078 262.389C305.078 262.389 306.946 270.186 306.946 274.352C306.946 278.517 309.559 278.926 309.559 278.926C309.559 278.926 312.422 282.58 310.913 285.24C309.403 287.9 308.794 294.521 308.794 294.521C308.794 294.521 309.288 307.156 307.048 308.902C304.807 310.649 304.34 314.821 304.34 314.821C304.34 314.821 300.225 322.75 300.353 324.636C300.482 326.521 294.627 339.287 294.627 339.287C294.627 339.287 297.49 323.423 280.805 316.568C280.805 316.568 280.676 311.182 281.921 309.706C283.167 308.23 285.11 307.558 283.891 300.097C282.673 292.635 283.539 283.72 283.539 281.93C283.539 280.139 287.276 268.973 287.276 268.973L300.38 272.62Z" fill="black"/>
<path d="M302.411 260.927L306.513 262.389C306.513 262.389 308.388 270.186 308.388 274.352C308.388 278.517 311.001 278.926 311.001 278.926C311.001 278.926 313.864 282.58 312.355 285.24C310.845 287.9 310.243 294.521 310.243 294.521C310.243 294.521 310.737 307.156 308.497 308.902C306.256 310.649 305.755 314.821 305.755 314.821C305.755 314.821 301.646 322.75 301.775 324.636C301.904 326.521 296.042 339.287 296.042 339.287C296.042 339.287 298.912 323.423 282.219 316.568C282.219 316.568 282.097 311.182 283.343 309.706C284.588 308.23 286.531 307.558 285.313 300.096C284.094 292.635 284.961 283.72 284.961 281.93C284.961 280.139 288.697 268.973 288.697 268.973L302.411 260.927Z" fill="white"/>
<path opacity="0.1" d="M211.808 526.101C211.808 526.101 218.347 521.665 222.639 524.888C226.93 528.11 211.808 526.101 211.808 526.101Z" fill="black"/>
<path opacity="0.1" d="M262.616 512.384C262.616 512.384 268.404 511.58 273.264 517.229C278.124 522.878 262.616 512.384 262.616 512.384Z" fill="black"/>
<g opacity="0.1">
<path opacity="0.1" d="M271.084 158.978C270.252 159.753 269.182 160.308 268.627 161.339C268.153 162.223 268.14 163.312 267.761 164.262C267.382 165.212 266.278 165.986 265.513 165.387C265.337 158.81 262.332 152.635 258.643 147.374C257.611 145.786 256.358 144.381 254.927 143.208C253.478 142.032 251.675 141.483 249.87 141.666C247.84 141.966 246.053 143.457 244.002 143.639C241.294 143.888 238.864 141.864 236.177 141.761C235.085 141.773 234.007 142.037 233.017 142.535C232.027 143.032 231.148 143.753 230.437 144.648C229.023 146.447 227.974 148.545 227.357 150.808C226.293 154.242 225.713 157.829 225.637 161.448C225.597 163.487 225.421 166.03 223.674 166.79C223.715 167.33 223.715 167.873 223.674 168.412C225.434 167.682 225.61 165.109 225.651 163.063C225.726 159.443 226.306 155.857 227.37 152.423C227.988 150.158 229.037 148.058 230.45 146.256C231.163 145.363 232.043 144.645 233.033 144.148C234.022 143.652 235.099 143.389 236.19 143.376C238.898 143.479 241.335 145.496 244.015 145.254C246.046 145.072 247.846 143.574 249.884 143.281C251.688 143.097 253.491 143.647 254.94 144.823C256.371 145.996 257.625 147.401 258.656 148.989C262.345 154.243 265.351 160.403 265.527 166.995C266.292 167.601 267.395 166.812 267.774 165.877C268.153 164.941 268.167 163.845 268.641 162.954C269.196 161.923 270.265 161.375 271.098 160.6C273.21 158.635 273.738 155.324 273.656 152.321C273.656 152.226 273.656 152.131 273.656 152.043C273.528 154.645 272.885 157.297 271.084 158.978Z" fill="black"/>
<path opacity="0.1" d="M221.116 158.459C219.559 156.611 217.433 155.376 216.005 153.417C214.802 151.683 214.116 149.596 214.035 147.432C213.822 150.137 214.522 152.833 216.005 155.025C217.433 156.991 219.559 158.226 221.116 160.074C222.61 161.883 223.508 164.175 223.668 166.593C223.771 165.121 223.599 163.643 223.16 162.245C222.722 160.847 222.026 159.56 221.116 158.459Z" fill="black"/>
<path opacity="0.1" d="M274.976 136.398C274.577 138.188 273.866 139.891 273.541 141.696C273.349 142.902 273.279 144.127 273.332 145.349C273.354 144.653 273.424 143.959 273.541 143.274C273.866 141.462 274.577 139.766 274.976 137.976C275.209 136.988 275.285 135.965 275.2 134.951C275.158 135.438 275.083 135.922 274.976 136.398Z" fill="black"/>
</g>
<path opacity="0.1" d="M89.8447 555.814C126.272 555.814 155.802 550.693 155.802 544.377C155.802 538.061 126.272 532.941 89.8447 532.941C53.4176 532.941 23.8877 538.061 23.8877 544.377C23.8877 550.693 53.4176 555.814 89.8447 555.814Z" fill="#DCEEEF"/>
<path d="M91.9702 325.293H87.7261V428.456H91.9702V325.293Z" fill="#535461"/>
<path d="M118.64 428.141L118.376 432.789L117.997 439.366L117.841 442.099L117.469 448.676L117.307 451.409L116.927 457.986L112.649 532.575C112.464 535.784 111.152 538.797 108.981 540.999C106.811 543.201 103.945 544.427 100.966 544.428H78.7233C75.7455 544.427 72.8802 543.2 70.7108 540.998C68.5414 538.796 67.2311 535.784 67.0469 532.575L62.7892 457.935L62.4101 451.358L62.2544 448.625L61.8753 442.048L61.7197 439.315L61.3406 432.738L61.0698 428.09C61.0228 427.196 61.1456 426.3 61.4306 425.459C61.7156 424.617 62.1569 423.848 62.7274 423.197C63.2978 422.546 63.9854 422.028 64.748 421.674C65.5106 421.321 66.332 421.139 67.1619 421.141H112.656C113.483 421.148 114.3 421.339 115.056 421.7C115.811 422.062 116.491 422.587 117.051 423.243C117.612 423.899 118.042 424.672 118.316 425.515C118.589 426.357 118.699 427.251 118.64 428.141Z" fill="#3F3D56"/>
<path d="M118.376 432.789L117.997 439.344H61.6925L61.3135 432.789H118.376Z" fill="#9D9CB5"/>
<path d="M117.841 442.077L117.469 448.639H62.2272L61.8481 442.077H117.841Z" fill="#9D9CB5"/>
<path d="M117.307 451.38L116.934 457.935H62.7621L62.3831 451.38H117.307Z" fill="#9D9CB5"/>
<path d="M54.8348 363.958C79.5484 383.265 89.8643 413.46 89.8643 413.46C89.8643 413.46 60.0808 412.357 35.3605 393.05C10.6401 373.743 0.344482 343.555 0.344482 343.555C0.344482 343.555 30.1145 344.651 54.8348 363.958Z" fill="#DCEEEF"/>
<path d="M0.324219 343.555C0.324219 343.555 31.2449 362.08 41.1615 377.419C51.0781 392.758 89.8643 413.46 89.8643 413.46" stroke="#535461" stroke-width="2" stroke-miterlimit="10"/>
<path d="M70.7901 325.067C84.2401 335.568 89.8651 352.003 89.8651 352.003C89.8651 352.003 73.6534 351.404 60.1967 340.902C46.7399 330.401 41.1284 313.959 41.1284 313.959C41.1284 313.959 57.3334 314.558 70.7901 325.067Z" fill="#DCEEEF"/>
<path d="M41.1284 313.959C41.1284 313.959 57.9561 324.044 63.351 332.389C68.7459 340.734 89.8651 352.003 89.8651 352.003" stroke="#535461" stroke-width="2" stroke-miterlimit="10"/>
<path d="M109.394 351.17C93.9401 369.505 90.6707 393.467 90.6707 393.467C90.6707 393.467 112.46 387.693 127.9 369.351C143.34 351.009 146.623 327.054 146.623 327.054C146.623 327.054 124.847 332.835 109.394 351.17Z" fill="#DCEEEF"/>
<path d="M146.637 327.062C146.637 327.062 126.506 345.857 121.388 358.806C116.271 371.755 90.6707 393.467 90.6707 393.467" stroke="#535461" stroke-width="2" stroke-miterlimit="10"/>
<path d="M676.675 344.717C676.675 344.717 665.5 284.692 669.778 277.223C669.778 277.223 669.933 270.281 669.676 261.432C669.676 261.095 669.676 260.759 669.676 260.416C670.429 260.958 671.213 261.446 672.025 261.877C675.966 264.064 680.492 264.694 684.818 263.66L681.434 259.59C680.621 258.618 679.775 257.566 679.599 256.28C679.423 254.994 679.911 253.846 680.33 252.699C683.546 243.93 683.715 232.903 677.521 226.209C672.289 220.582 671.016 213.318 665.337 208.181C661.188 204.417 658.907 198.9 656.754 193.565C654.933 189.057 653.099 184.511 652.056 179.732C651.244 175.998 650.919 172.132 649.802 168.485C648.685 164.839 646.594 161.295 643.324 159.665C642.16 159.088 640.867 158.759 639.805 157.992C638.41 156.976 637.571 155.324 636.562 153.877C631.438 146.57 614.279 150.874 606.156 153.841C603.948 154.588 601.903 155.811 600.145 157.436L600.22 157.305C600.28 157.195 600.355 157.086 600.423 156.976C599.533 157.752 598.766 158.677 598.148 159.716C596.964 161.741 596.47 164.101 595.481 166.293C594.29 168.887 587.663 176.129 590.513 179.045C590.712 179.241 590.941 179.399 591.19 179.513C592.259 179.993 593.437 180.121 594.574 179.878L594.452 180.192C593.479 182.765 592.98 185.518 592.983 188.297C592.983 200.303 602.155 210.037 613.48 210.037C615.609 210.039 617.725 209.687 619.755 208.992C619.802 209.27 619.843 209.547 619.89 209.825C619.89 209.935 619.924 210.044 619.938 210.154L619.579 210.695C619.561 210.661 619.54 210.629 619.518 210.6L608.891 226.633C607.266 227.868 597.911 235.175 597.383 240.656C596.828 246.656 596.273 253.678 596.273 253.678L596.199 255.184C595.734 255.603 595.191 255.908 594.607 256.078C594.022 256.248 593.411 256.28 592.814 256.17C589.497 255.586 589.497 269.324 589.497 269.324C589.497 269.324 587.291 271.516 585.774 269.616C584.258 267.716 580.251 274.154 580.251 274.154L555.138 275.324L554.563 275.36L553.209 270.837C553.063 270.359 552.749 269.964 552.335 269.735C551.92 269.507 551.439 269.464 550.995 269.616C550.891 269.653 550.789 269.7 550.691 269.755L550.596 269.814L550.42 269.945L550.332 270.033C550.284 270.08 550.238 270.132 550.197 270.186L550.115 270.289L550.075 270.332C549.919 270.566 549.815 270.835 549.773 271.12C549.73 271.404 549.75 271.695 549.831 271.969L550.995 275.85C546.149 276.902 541.194 279.869 545.235 288.039L524.752 283.954L531.379 289.961L565.589 297.583C565.136 298.46 565.434 299.731 566.848 301.521C572.94 309.246 584.042 311.343 588.509 311.884C589.689 314.733 591.163 317.43 592.902 319.922L592.516 327.617C592.516 327.617 581.205 386.268 579.134 389.243C580.18 387.964 581.137 386.603 581.997 385.172C578.714 397.223 574.125 413.716 572.92 416.186C570.984 420.132 569.19 436.099 571.397 437.122C572.074 437.437 574.01 437.283 576.772 437.057V438.379L576.65 488.503C576.65 488.503 577.205 519.246 575.682 522.176C574.159 525.107 573.753 531.253 573.753 531.253C573.753 531.253 567.661 543.376 562.834 548.25C562.802 548.288 562.765 548.322 562.726 548.352L562.577 547.212C562.577 547.212 556.776 555.119 543.942 554.674C543.942 554.674 536.219 560.096 547.672 560.388C559.125 560.68 573.753 559.95 573.753 559.95C573.753 559.95 583.967 543.142 592.523 545.334V558.072H595.143V545.13C596.358 544.266 597.397 543.146 598.199 541.835C599.001 540.525 599.548 539.053 599.807 537.508C600.031 535.915 599.867 534.287 599.33 532.784C598.793 531.281 597.903 529.954 596.747 528.936C596.228 528.429 595.811 527.812 595.523 527.122C595.235 526.433 595.083 525.687 595.075 524.931L594.98 525.019C594.98 524.763 594.919 524.5 594.892 524.23C594.141 517.653 593.2 504.083 596.524 494.042C601.079 480.274 602.46 461.099 599.143 449.684C598.073 446.036 597.194 442.325 596.51 438.569C596.429 438.094 596.354 437.641 596.287 437.217C598.554 437.549 600.799 438.037 603.008 438.679C610.691 440.966 627.499 441.39 641.849 441.266C641.883 441.69 641.923 442.136 641.971 442.581C642.226 445.68 642.761 448.744 643.568 451.73C645.369 457.577 646.194 483.351 646.194 483.351C646.194 483.351 648.516 504.543 647.25 513.166C646.574 517.96 645.897 522.776 645.511 527.613V527.708C645.511 527.708 641.707 539.401 638.925 545.751C638.857 545.912 638.782 546.072 638.715 546.226C637.973 546.299 637.243 546.473 636.542 546.745C636.542 546.745 632.812 554.783 629.096 556.113C625.38 557.443 626.612 561.82 635.026 560.213C643.439 558.605 656.145 557.29 656.145 557.29L656.693 549.091L659.279 545.597L658.602 553.775L661.357 553.19L660.991 543.244L665.222 537.53C665.222 537.53 670.333 532.619 662.738 522.958V523.17C662.657 523.031 662.582 522.885 662.494 522.746V522.703C661.235 520.598 660.233 516.674 662.068 509.71C665.384 497.126 667.314 485.704 667.314 485.704C667.314 485.704 674.719 455.107 665.818 440.63H666.21C665.298 438.593 664.653 436.429 664.295 434.199C664.25 433.936 664.209 433.666 664.173 433.388C670.759 432.979 677.223 431.693 682.497 428.916C682.476 428.887 679.302 356.278 676.675 344.717ZM593.058 294.075V294.221L591.704 294.294L593.058 294.075ZM588.414 294.769C588.192 294.822 587.983 294.93 587.805 295.083C587.223 295.972 586.858 297.005 586.742 298.087L584.631 297.575C584.631 297.575 583.148 297.232 581.016 296.845L580.007 295.748C582.783 295.5 585.666 295.135 588.414 294.769Z" fill="url(#paint1_linear_11:363)"/>
<path d="M658.291 543.347L657.485 553.702L660.186 553.117L659.78 541.885L658.291 543.347Z" fill="#1D2366"/>
<path d="M596.673 494.181C593.417 504.192 594.337 517.704 595.068 524.266C595.339 526.692 595.589 528.169 595.589 528.169C595.589 528.169 590.723 540.139 590.316 540.592C589.91 541.045 575.993 550.216 575.993 550.216L566.266 556.347C566.266 556.347 556.397 551.677 561.129 550.07C562.095 549.651 562.966 549.01 563.68 548.192C568.419 543.332 574.369 531.252 574.369 531.252C574.369 531.252 574.775 525.121 576.264 522.206C577.753 519.29 577.212 488.649 577.212 488.649L577.327 438.701V432.19L595.84 432.336C595.957 434.546 596.224 436.745 596.639 438.913C597.303 442.655 598.164 446.354 599.218 449.991C602.48 461.384 601.127 480.464 596.673 494.181Z" fill="#FFB0B1"/>
<path opacity="0.1" d="M595.59 528.169C595.59 528.169 590.723 540.139 590.317 540.592C589.91 541.045 575.993 550.216 575.993 550.216L566.266 556.347C566.266 556.347 556.397 551.677 561.129 550.07C562.095 549.651 562.966 549.01 563.681 548.192L564.1 551.385L567.343 551.239L595.095 524.281C595.339 526.693 595.59 528.169 595.59 528.169Z" fill="black"/>
<path d="M595.251 524.961L567.342 552.101L564.1 552.247L563.423 547.132C563.423 547.132 557.751 555.01 545.147 554.571C545.147 554.571 537.579 559.972 548.795 560.264C560.012 560.556 574.335 559.825 574.335 559.825C574.335 559.825 584.339 543.018 592.713 545.21V557.904H595.285V545.093C596.481 544.224 597.501 543.103 598.285 541.797C599.07 540.49 599.601 539.027 599.847 537.493C600.07 535.914 599.912 534.299 599.389 532.804C598.867 531.309 597.996 529.984 596.862 528.958C596.355 528.445 595.951 527.826 595.674 527.139C595.397 526.451 595.253 525.71 595.251 524.961Z" fill="#1D2366"/>
<path d="M660.863 509.79C659.062 516.732 660.044 520.642 661.276 522.739V522.783C662.856 525.372 663.955 528.269 664.511 531.311L664.62 531.969L651.921 551.955L645.03 554.878C645.03 554.878 633.949 550.793 635.973 549.624C636.481 549.339 637.273 547.819 638.18 545.722C640.888 539.4 644.624 527.737 644.624 527.737V527.642C645.017 522.827 645.639 518.026 646.33 513.246C647.569 504.645 645.294 483.533 645.294 483.533C645.294 483.533 644.482 457.862 642.722 452.023C641.927 449.054 641.399 446.01 641.145 442.932C640.779 439.278 640.698 436.267 640.698 436.267C640.698 436.267 647.995 425.306 661.371 437.144C662.44 438.089 663.381 439.191 664.166 440.418C673.406 454.61 665.967 485.872 665.967 485.872C665.967 485.872 664.105 497.243 660.863 509.79Z" fill="#FFB0B1"/>
<path opacity="0.1" d="M664.64 531.969L651.941 551.955L645.05 554.878C645.05 554.878 633.97 550.793 635.994 549.624C636.501 549.339 637.293 547.819 638.2 545.722C642.891 545.678 645.321 550.501 645.321 550.501L651.264 549.478C651.264 549.478 659.103 532.846 660.863 531.83C662.623 530.814 661.134 524.237 661.134 524.237V522.564C661.181 522.622 661.222 522.688 661.276 522.746V522.79C662.856 525.38 663.955 528.276 664.511 531.318L664.64 531.969Z" fill="black"/>
<path d="M645.727 550.932C645.727 550.932 642.343 544.224 635.858 546.701C635.858 546.701 632.21 554.739 628.561 556.04C624.913 557.341 626.131 561.725 634.376 560.125C642.62 558.525 655.048 557.202 655.048 557.202L655.59 549.025L663.97 537.5C663.97 537.5 668.965 532.612 661.533 522.987V524.661C661.533 524.661 663.022 531.238 661.262 532.254C659.502 533.269 651.691 549.909 651.691 549.909L645.727 550.932Z" fill="#1D2366"/>
<path opacity="0.1" d="M595.86 432.321C595.977 434.532 596.244 436.73 596.659 438.898C589.037 437.692 581.964 438.292 577.327 438.686V432.175L595.86 432.321Z" fill="black"/>
<path opacity="0.1" d="M664.917 442.238C664.917 442.238 654.087 442.808 641.172 442.925C640.806 439.271 640.725 436.26 640.725 436.26C640.725 436.26 648.022 425.299 661.398 437.137C662.467 438.081 663.408 439.183 664.193 440.411C664.403 441.034 664.645 441.644 664.917 442.238Z" fill="black"/>
<path d="M664.917 440.922C664.917 440.922 617.48 443.4 603.022 439.022C588.563 434.645 574.233 438.438 572.074 437.422C569.915 436.406 571.668 420.498 573.563 416.559C575.459 412.62 585.856 372.786 585.856 372.786L595.86 316.473L606.4 313.338L607.144 313.111L625.508 307.645L638.965 303.633C638.965 303.633 665.723 416.413 663.428 424.729C662.595 427.913 662.461 431.263 663.036 434.514C663.386 436.733 664.02 438.89 664.917 440.922Z" fill="#1D2366"/>
<path d="M560.986 277.962C560.986 277.962 551.51 288.923 558.685 295.032C565.86 301.141 570.578 295.617 570.578 295.617L560.986 277.962Z" fill="#C7DAF5"/>
<path opacity="0.1" d="M560.986 277.962C560.986 277.962 551.51 288.923 558.685 295.032C565.86 301.141 570.578 295.617 570.578 295.617L560.986 277.962Z" fill="black"/>
<path d="M637.551 205.893C637.551 205.893 636.44 207.033 634.768 208.714C632.386 211.118 628.859 214.633 625.732 217.578C621.4 221.649 617.826 224.638 619.105 222.087C620.384 219.537 620.141 215.094 619.504 210.936C619.457 210.658 619.416 210.38 619.369 210.11C618.842 207.056 618.144 204.04 617.277 201.078C617.277 201.078 624.276 191.315 628.148 187.463C629.59 186.002 630.599 185.403 630.66 186.418C630.727 187.785 631.675 190.803 632.853 194.004C632.887 194.106 632.921 194.201 632.961 194.303C633.746 196.496 634.633 198.747 635.412 200.69C636.603 203.672 637.551 205.893 637.551 205.893Z" fill="#FFB0B1"/>
<path opacity="0.1" d="M632.961 194.303C632.303 198.123 630.708 201.681 628.34 204.607C625.973 207.533 622.922 209.718 619.504 210.936C618.966 207.6 618.222 204.306 617.277 201.078C617.277 201.078 630.457 182.699 630.66 186.419C630.707 187.829 631.736 190.957 632.961 194.303Z" fill="black"/>
<path opacity="0.1" d="M618.191 215.846L619.897 213.252C619.897 213.252 621.027 220.691 625.184 217.41C629.34 214.129 629.543 242.103 629.543 242.103L625.082 314.105L592.848 312.023L593.762 277.231L597.41 259.692L606.434 234.196L611.801 225.77L618.191 215.846Z" fill="black"/>
<path d="M629.543 242.549L625.481 307.653L625.055 314.551L607.083 313.389L606.406 313.345L592.868 312.468L593.782 277.669L597.431 260.131L606.454 234.634L611.822 226.209L618.211 216.248L619.917 213.661C619.917 213.661 621.048 221.101 625.204 217.82L625.292 217.754C629.353 214.977 629.543 242.549 629.543 242.549Z" fill="#1D2366"/>
<path d="M597.884 254.036C597.884 254.036 596.266 257.69 593.017 257.098C589.768 256.506 589.775 270.252 589.775 270.252C589.775 270.252 587.616 272.444 586.127 270.544C584.637 268.644 580.711 275.068 580.711 275.068L556.113 276.237C556.113 276.237 567.058 281.637 564.912 297.977C564.912 297.977 602.074 295.493 603.293 291.7C604.511 287.907 597.884 254.036 597.884 254.036Z" fill="white"/>
<path opacity="0.03" d="M597.884 254.036C597.884 254.036 596.266 257.69 593.017 257.098C589.768 256.506 589.775 270.252 589.775 270.252C589.775 270.252 587.616 272.444 586.127 270.544C584.637 268.644 580.711 275.068 580.711 275.068L556.113 276.237C556.113 276.237 567.058 281.637 564.912 297.977C564.912 297.977 602.074 295.493 603.293 291.7C604.511 287.907 597.884 254.036 597.884 254.036Z" fill="black"/>
<path d="M526.397 284.823L532.882 290.801L586.262 302.91L579.642 295.617L526.397 284.823Z" fill="white"/>
<path d="M618.293 218.148C617.406 219.61 614.868 227.093 612.749 233.626C610.982 239.07 609.507 243.857 609.507 243.857C609.507 243.857 606.061 268.074 604.301 272.452C602.541 276.829 603.496 293.9 603.496 293.9L596.937 336.057C596.937 336.057 593.965 357.798 589.376 370.784C584.847 383.565 579.804 389.557 579.649 389.747C581.679 386.78 592.747 328.363 592.747 328.363L596.402 254.687C596.402 254.687 596.936 247.686 597.478 241.701C598.02 235.716 608.985 227.546 608.985 227.546L619.558 211.316C620.621 212.85 619.91 215.525 618.293 218.148Z" fill="white"/>
<path d="M590.723 312.834C590.723 312.834 575.154 312.103 567.613 302.325C560.073 292.548 585.043 298.423 585.043 298.423L591.535 300.031L590.723 312.834Z" fill="#FFB0B1"/>
<path opacity="0.1" d="M663.428 424.736C662.595 427.92 662.46 431.271 663.036 434.521C646.052 435.822 627.884 430.867 627.884 430.867C624.5 434.229 615.585 439.183 615.585 439.183L610.725 374.145C607.618 365.376 606.4 319.433 606.4 319.433C606.4 319.433 606.677 317.028 607.076 313.426C607.076 313.338 607.076 313.243 607.11 313.155C608.322 303.093 610.725 284.202 611.903 281.652C613.527 278.144 606.907 268.812 606.907 268.812L609.919 241.08L610.285 237.733C616.634 234.671 621.501 224.893 621.501 224.893L625.238 217.827C629.299 215.013 629.509 242.585 629.509 242.585L625.447 307.689L638.904 303.677C638.904 303.677 665.723 416.42 663.428 424.736Z" fill="black"/>
<path d="M680.858 429.23C662.345 439.154 628.697 429.961 628.697 429.961C625.312 433.322 616.397 438.277 616.397 438.277L611.531 373.239C608.43 364.47 607.212 318.526 607.212 318.526C607.212 318.526 611.124 284.246 612.749 280.746C613.223 279.723 612.993 278.203 612.431 276.566C609.669 268.775 608.653 260.388 609.466 252.092L610.766 240.174L611.124 236.834C617.48 233.765 622.347 223.987 622.347 223.987L625.732 217.586L631.959 205.791L634.911 200.208L635.412 200.698L639.236 204.439C639.236 204.439 640.861 205.901 643.297 208.093C648.597 212.916 657.756 221.408 662.481 226.603C666.637 231.178 667.95 248.972 668.329 262.367C668.579 271.187 668.431 278.1 668.431 278.1C664.241 285.547 675.2 345.331 675.2 345.331C677.751 356.884 680.858 429.23 680.858 429.23Z" fill="white"/>
<path opacity="0.03" d="M645.321 223.841C645.321 223.841 632.616 249.951 634.091 259.875C635.567 269.799 639.764 281.031 637.74 283.654C637.045 284.648 636.146 285.455 635.113 286.011C634.081 286.568 632.944 286.859 631.79 286.862C629.759 287.008 624.344 291.093 624.344 291.532C624.344 291.97 619.342 291.97 614.868 294.017C610.393 296.063 603.787 297.225 603.787 297.225C603.787 297.225 590.926 296.786 589.728 298.101C588.529 299.417 587.297 307.287 589.863 313.565C592.428 319.842 595.278 324.526 597.431 325.381C599.583 326.236 613.243 321.296 624.324 320.127C635.405 318.958 647.433 309.48 647.433 309.48C647.433 309.48 660.68 304.364 663.002 295.763C665.324 287.162 660.166 239.889 660.166 239.889C660.166 239.889 656.267 217.856 645.321 223.841Z" fill="black"/>
<path opacity="0.03" d="M643.697 221.649C643.697 221.649 630.991 247.766 632.48 257.683C633.97 267.599 638.153 278.838 636.122 281.469C635.429 282.464 634.532 283.272 633.5 283.829C632.469 284.385 631.332 284.676 630.179 284.677C628.148 284.823 622.733 288.908 622.733 289.347C622.733 289.785 617.731 289.785 613.257 291.824C608.782 293.863 602.176 295.032 602.176 295.032C602.176 295.032 589.315 294.594 588.123 295.909C586.932 297.225 585.686 305.102 588.259 311.372C590.831 317.642 593.674 322.334 595.826 323.189C597.979 324.044 611.639 319.104 622.72 317.942C633.8 316.78 645.829 307.287 645.829 307.287C645.829 307.287 659.069 302.172 661.364 293.578C663.658 284.984 658.528 237.696 658.528 237.696C658.528 237.696 654.642 215.671 643.697 221.649Z" fill="black"/>
<path d="M644.922 222.526C644.922 222.526 632.217 248.643 633.706 258.56C635.195 268.476 639.378 279.715 637.354 282.339C636.661 283.336 635.763 284.146 634.73 284.704C633.698 285.262 632.559 285.553 631.404 285.554C629.374 285.7 623.958 289.785 623.958 290.217C623.958 290.648 618.963 290.655 614.482 292.701C610.001 294.747 603.401 295.909 603.401 295.909C603.401 295.909 590.54 295.471 589.342 296.786C588.144 298.101 586.912 305.979 589.477 312.249C592.043 318.519 594.892 323.211 597.045 324.066C599.197 324.921 612.857 319.981 623.938 318.811C635.019 317.642 647.047 308.164 647.047 308.164C647.047 308.164 660.294 303.049 662.616 294.448C664.938 285.847 659.814 238.573 659.814 238.573C659.814 238.573 655.861 216.577 644.922 222.526Z" fill="white"/>
<path opacity="0.1" d="M644.644 292.577C644.644 292.577 634.491 290.385 638.024 294.038C641.558 297.692 641.537 300.893 645.863 300.747C650.188 300.601 644.644 292.577 644.644 292.577Z" fill="black"/>
<path opacity="0.1" d="M661.804 371.193C661.804 371.193 657.214 374.547 665.994 382.278C674.773 390.01 661.804 371.193 661.804 371.193Z" fill="black"/>
<path opacity="0.1" d="M653.045 398.765C653.045 399.203 651.42 414.841 657.499 418.751C663.577 422.661 653.045 398.765 653.045 398.765Z" fill="black"/>
<path d="M556.532 276.2C551.632 276.383 541.045 277.998 546.535 289.055C551.388 298.84 559.545 292.299 564.134 287.337C563.015 282.711 560.294 278.725 556.532 276.2Z" fill="#FFB0B1"/>
<path d="M564.195 287.25L564.398 287.023L564.195 287.25Z" fill="#FFB0B1"/>
<path opacity="0.1" d="M643.297 208.539C638.099 212.375 633.74 215.613 632.887 216.285C630.558 218.148 626.118 229.088 623.254 234.671C620.973 239.165 613.561 240.32 610.766 240.605L611.124 237.265C617.48 234.196 622.347 224.418 622.347 224.418L634.911 200.639L639.236 204.885C639.236 204.885 640.861 206.346 643.297 208.539Z" fill="black"/>
<path d="M643.297 208.1C638.099 211.937 633.74 215.174 632.887 215.854C630.558 217.71 626.118 228.649 623.254 234.233C620.973 238.727 613.561 239.881 610.766 240.166L611.124 236.827C617.48 233.757 622.347 223.98 622.347 223.98L634.911 200.201L639.236 204.432C639.236 204.432 640.861 205.879 643.297 208.1Z" fill="#DCE7FF"/>
<path d="M633.293 189.48C633.296 193.867 632.063 198.151 629.759 201.765C627.038 206.037 622.989 209.115 618.346 210.439C613.702 211.764 608.773 211.248 604.452 208.985C600.131 206.721 596.705 202.861 594.795 198.104C592.885 193.347 592.618 188.008 594.042 183.056C595.467 178.105 598.488 173.868 602.558 171.116C606.628 168.364 611.477 167.277 616.225 168.054C620.974 168.832 625.307 171.421 628.438 175.352C631.57 179.283 633.292 184.296 633.293 189.48Z" fill="#FFB0B1"/>
<path opacity="0.1" d="M668.329 262.374C665.58 260.549 663.341 257.953 661.851 254.862C660.721 252.451 659.969 249.666 658.04 247.956C656.3 246.422 653.979 246.049 651.813 245.362C644.692 243.089 638.721 236.074 638.498 228.065C638.39 224.294 639.48 220.531 638.985 216.796C638.704 214.683 637.926 212.683 636.725 210.987C636.128 210.176 635.474 209.416 634.768 208.714C633.821 207.75 632.826 206.814 631.959 205.791C631.413 205.158 630.936 204.459 630.538 203.708C630.216 203.094 629.955 202.445 629.759 201.772C628.405 197.3 629.637 191.994 628.148 187.471L628.067 187.222C627.505 185.615 626.361 184.007 624.771 183.883C623.18 183.758 621.819 185.183 620.303 185.819C617.128 187.149 613.703 184.884 611.057 182.575C608.41 180.265 605.425 177.627 602.061 178.139C599.834 178.482 598.074 180.119 596.023 180.967C595.56 181.16 595.082 181.31 594.594 181.413C596.33 176.74 599.519 172.865 603.614 170.454C607.708 168.044 612.452 167.248 617.031 168.203C621.61 169.159 625.738 171.806 628.706 175.69C631.673 179.574 633.295 184.453 633.293 189.488C633.295 191.008 633.147 192.524 632.853 194.011C632.887 194.113 632.92 194.208 632.961 194.311C633.746 196.503 634.633 198.754 635.411 200.698L639.236 204.439C639.236 204.439 640.86 205.901 643.297 208.093C648.597 212.916 657.756 221.408 662.481 226.603C666.637 231.193 667.936 248.979 668.329 262.374Z" fill="black"/>
<path d="M595.786 167.616C596.754 165.489 597.234 163.107 598.392 161.09C600.091 158.167 603.056 156.296 606.102 155.164C614.055 152.204 630.863 147.907 635.885 155.164C636.874 156.625 637.693 158.247 639.06 159.256C640.102 160.023 641.361 160.352 642.505 160.929C645.707 162.552 647.751 166.089 648.841 169.699C649.931 173.309 650.256 177.182 651.055 180.901C652.077 185.673 653.87 190.197 655.658 194.691C657.763 199.996 659.996 205.499 664.058 209.248C669.602 214.363 670.827 221.605 675.971 227.217C682.063 233.882 681.867 244.88 678.726 253.612C678.313 254.76 677.846 255.958 678.009 257.179C678.171 258.399 679.011 259.51 679.803 260.482L683.133 264.537C675.254 266.591 666.339 262.148 662.67 254.351C661.54 251.939 660.788 249.162 658.852 247.445C657.12 245.91 654.791 245.545 652.632 244.858C645.511 242.578 639.541 235.555 639.317 227.546C639.209 223.783 640.299 220.019 639.805 216.292C639.53 214.165 638.748 212.15 637.537 210.446C635.675 207.823 632.866 206.061 631.35 203.138C628.785 198.25 630.734 191.899 628.886 186.652C628.318 185.045 627.18 183.437 625.59 183.313C623.999 183.189 622.638 184.613 621.115 185.249C617.947 186.579 614.522 184.321 611.876 182.005C609.229 179.688 606.244 177.057 602.873 177.576C600.646 177.912 598.893 179.549 596.842 180.404C595.326 181.033 592.252 181.595 590.926 180.214C588.123 177.43 594.615 170.217 595.786 167.616Z" fill="#591D4B"/>
<path opacity="0.1" d="M664.552 251.939C663.415 249.527 662.67 246.751 660.734 245.041C659.001 243.506 656.673 243.133 654.507 242.446C647.392 240.174 641.422 233.151 641.192 225.142C641.084 221.378 642.174 217.608 641.686 213.881C641.403 211.767 640.622 209.767 639.419 208.071C637.55 205.448 634.741 203.686 633.232 200.763C630.666 195.882 632.616 189.532 630.761 184.277C630.199 182.677 629.055 181.069 627.471 180.938C625.887 180.806 624.513 182.246 622.997 182.882C619.829 184.212 616.397 181.946 613.757 179.637C611.117 177.328 608.119 174.69 604.755 175.201C602.528 175.545 600.768 177.182 598.723 178.029C597.207 178.658 594.127 179.228 592.801 177.847C590.012 174.924 596.503 167.725 597.668 165.139C598.635 163.005 599.116 160.63 600.28 158.613C600.341 158.503 600.409 158.394 600.477 158.284C599.606 159.063 598.854 159.985 598.25 161.017C597.092 163.034 596.612 165.402 595.644 167.543C594.473 170.13 587.981 177.35 590.777 180.251C592.131 181.639 595.177 181.069 596.693 180.441C598.723 179.586 600.497 177.949 602.724 177.613C606.108 177.094 609.087 179.732 611.727 182.041C614.367 184.35 617.819 186.616 620.973 185.286C622.489 184.65 623.816 183.218 625.441 183.349C627.065 183.481 628.148 185.081 628.737 186.689C630.585 191.936 628.636 198.286 631.201 203.175C632.717 206.047 635.526 207.845 637.388 210.483C638.599 212.187 639.381 214.201 639.655 216.329C640.15 220.056 639.06 223.819 639.168 227.583C639.392 235.621 645.362 242.614 652.483 244.894C654.628 245.581 656.971 245.947 658.703 247.481C660.646 249.199 661.411 251.975 662.521 254.387C666.19 262.184 675.105 266.627 682.984 264.574L681.413 262.659C674.583 262.769 667.672 258.574 664.552 251.939Z" fill="black"/>
<path opacity="0.1" d="M617.886 218.587C617 220.048 614.461 227.531 612.343 234.064C610.359 233.231 608.559 227.919 608.559 227.919L619.132 211.681C620.215 213.289 619.504 215.956 617.886 218.587Z" fill="black"/>
<path d="M618.293 218.148C617.406 219.61 614.867 227.093 612.749 233.626C610.765 232.8 608.965 227.48 608.965 227.48L619.538 211.25C620.621 212.85 619.91 215.525 618.293 218.148Z" fill="#DCE7FF"/>
<path d="M556.817 292.803L550.955 272.846C550.885 272.613 550.859 272.366 550.878 272.122C550.897 271.877 550.961 271.639 551.065 271.421C551.17 271.203 551.313 271.01 551.487 270.852C551.661 270.694 551.862 270.574 552.078 270.5C552.515 270.353 552.987 270.398 553.393 270.626C553.798 270.853 554.105 271.244 554.244 271.714L560.106 291.649L559.524 295.822L556.817 292.803Z" fill="#BE8B87"/>
<path opacity="0.1" d="M551.51 271.092C551.947 270.943 552.421 270.987 552.828 271.214C553.236 271.442 553.543 271.834 553.683 272.305L559.545 292.241L559.105 295.368L559.531 295.851L560.113 291.678L554.217 271.743C554.078 271.273 553.771 270.882 553.366 270.655C552.96 270.428 552.488 270.383 552.051 270.53C551.684 270.658 551.367 270.915 551.151 271.26C551.266 271.194 551.386 271.138 551.51 271.092Z" fill="white"/>
<path d="M556.817 292.803L560.106 291.678L559.626 295.098L559.524 295.851L558.563 294.769L556.817 292.803Z" fill="#EFC8C4"/>
<path d="M558.563 294.769C558.62 294.691 558.692 294.626 558.773 294.579C558.821 294.547 558.876 294.53 558.932 294.53C558.988 294.53 559.044 294.547 559.091 294.579C559.137 294.639 559.176 294.706 559.206 294.777C559.251 294.857 559.312 294.926 559.384 294.978C559.457 295.03 559.54 295.063 559.626 295.076L559.524 295.807L558.563 294.769Z" fill="#727A9C"/>
<path d="M550.921 279.935C550.921 279.935 562.679 279.862 559.91 285.262C557.142 290.662 552.816 291.313 552.816 291.313L550.921 279.935Z" fill="#FFB0B1"/>
<path d="M477.796 37.576H477.288C457.089 37.576 439.226 49.1148 428.951 66.1416C418.675 49.1148 400.812 37.576 380.613 37.576H380.106C364.947 37.7319 350.458 44.34 339.787 55.9641C329.116 67.5882 323.126 83.289 323.118 99.6546C323.118 119.977 331.362 148.813 347.439 172.541C378.068 217.754 428.951 257.31 428.951 257.31C428.951 257.31 479.833 217.761 510.456 172.541C526.539 148.813 534.777 119.977 534.777 99.6546C534.769 83.2903 528.779 67.5905 518.11 55.9666C507.44 44.3427 492.953 37.7339 477.796 37.576ZM470.533 176.02C468.232 176.01 465.988 175.25 464.095 173.839C462.202 172.428 460.749 170.432 459.926 168.113H447.85C447.055 168.107 446.281 167.834 445.636 167.331C444.992 166.828 444.509 166.12 444.255 165.307L440.546 153.242L428.809 197.519C428.58 198.371 428.102 199.12 427.445 199.654C426.788 200.188 425.989 200.477 425.167 200.478H424.93C424.072 200.434 423.255 200.073 422.614 199.455C421.974 198.838 421.549 198.002 421.41 197.088L409.314 118.545L400.474 165.022C400.271 165.905 399.8 166.689 399.136 167.249C398.473 167.809 397.654 168.113 396.812 168.113H379.801C379.291 168.136 378.782 168.048 378.305 167.853C377.827 167.659 377.391 167.362 377.023 166.98C376.654 166.599 376.361 166.141 376.161 165.635C375.961 165.128 375.857 164.582 375.857 164.031C375.857 163.48 375.961 162.935 376.161 162.428C376.361 161.922 376.654 161.464 377.023 161.082C377.391 160.701 377.827 160.404 378.305 160.21C378.782 160.015 379.291 159.927 379.801 159.95H393.833L406.356 97.4623C406.561 96.5384 407.058 95.7203 407.76 95.1479C408.463 94.5754 409.328 94.2841 410.207 94.3238C411.086 94.3635 411.925 94.7317 412.581 95.3655C413.237 95.9993 413.668 96.8593 413.802 97.7984L426.155 177.92L436.674 138.305C436.893 137.47 437.356 136.735 437.994 136.208C438.632 135.681 439.411 135.391 440.214 135.382H440.289C441.084 135.382 441.859 135.653 442.504 136.157C443.148 136.661 443.628 137.372 443.876 138.188L450.584 159.972H459.777C460.43 157.828 461.62 155.921 463.214 154.462C464.808 153.002 466.745 152.046 468.81 151.699C470.876 151.352 472.99 151.629 474.919 152.497C476.849 153.366 478.518 154.793 479.744 156.621C480.969 158.449 481.703 160.608 481.864 162.858C482.025 165.108 481.607 167.362 480.656 169.372C479.705 171.382 478.259 173.069 476.476 174.247C474.693 175.425 472.643 176.049 470.553 176.049L470.533 176.02Z" fill="#DCEEEF"/>
</g>
<defs>
<linearGradient id="paint0_linear_11:363" x1="241.199" y1="566.249" x2="241.199" y2="116.579" gradientUnits="userSpaceOnUse">
<stop stop-color="#808080" stop-opacity="0.25"/>
<stop offset="0.54" stop-color="#808080" stop-opacity="0.12"/>
<stop offset="1" stop-color="#808080" stop-opacity="0.1"/>
</linearGradient>
<linearGradient id="paint1_linear_11:363" x1="151094" y1="339282" x2="151094" y2="108462" gradientUnits="userSpaceOnUse">
<stop stop-color="#808080" stop-opacity="0.25"/>
<stop offset="0.54" stop-color="#808080" stop-opacity="0.12"/>
<stop offset="1" stop-color="#808080" stop-opacity="0.1"/>
</linearGradient>
<clipPath id="clip0_11:363">
<rect width="748" height="572" fill="white"/>
</clipPath>
</defs>
</svg>
